<mxfile host="65bd71144e">
    <diagram id="_GSq7gw8U4V5AJUo9iD4" name="ページ1">
        <mxGraphModel dx="1130" dy="528" grid="1" gridSize="10" guides="1" tooltips="1" connect="1" arrows="1" fold="1" page="1" pageScale="1" pageWidth="827" pageHeight="1169" math="0" shadow="0">
            <root>
                <mxCell id="0"/>
                <mxCell id="1" parent="0"/>
                <mxCell id="3" value="" style="shape=image;verticalLabelPosition=bottom;labelBackgroundColor=default;verticalAlign=top;aspect=fixed;imageAspect=0;image=data:image/png,iVBORw0KGgoAAAANSUhEUgAAAJQAAAAnCAYAAADpYmEPAAAAAXNSR0IArs4c6QAAAARnQU1BAACxjwv8YQUAAAAJcEhZcwAADsMAAA7DAcdvqGQAAAO3SURBVHhe7dxBSFNxHAfwr4URvDxoh+3ihCJwgq2DJWoHD1oU72KRi9HssA6vKBV6C5pED8IR+AKboeuwS4tghAj1LhWEhzTCHdqhPEQeWgeVbGDsUkT939szrdzYfH/JvX6fx/D9f4+Hbn73/7/3/08rnE7nDxDCyTbzKyFcVDQ0NFAPRbihIY9wRUMe4YoCRbiiQBGuKFCEKwoU4YoCRbiiQBGuKFCEKwoU4YoCRbiytvRS34OhgW64q9l+Zg7a6FVEX2aNQ+4zQwgdTmNMimDaqFgh4Mi1KHqb9W9UnMyrCKQbT5H7abYauz2fVRYC1QQ5psD9ToV8cwauCyqU5jQGz4aRZWFSTjkxe0eC8ozHSxBARPMgJfYiZlZySq1vFXZ7PqssDHkeuBxpzIxMIsPeN6nRJNK7nazaDu9xN4Tt1WjqS0DTNGiJMcidgnle+erv74fP5zNbf7eJpUClML9Ui7YrIqrZ1n65FbVL86w6icR4CpnvGSRH/RBFLwaef0PbuRBE88xypIensbHxV4D+bJMcC4FK4nZUQ2afhLgWh3zoK6bu32ZVYHZ8AOF7H1B7zMt6LNZ73U0hLVTBkTux7KyEJxAIrNsmqyzd5WVfsgtL3wTm2DbhPQ91zfWSHqrApSjrscrbeuGhMOVn02mDGK6GYpbvLtfrmXTlE6Z2hOLsGjYeYnsrCtQeKJYvS2wVKKFFQkR/YdiNQCJ4BgfrzQMbkG+YI4XZKFAiQv1HIbxW4Rf9UN/UoDsos2u40uULU/kNc5MI+0WI/jDbW1Gg5lOgmZWNslGgHKgS0pi+pU9jZDA5MoO0w4Um82ix7BOmf4NToCpRaUwzOdCjxjB40m1UDfpserwLe9jWFY9Aatms+agFfMnWorWvFYI+jSEdhHPhg3HXWSwKk3UcArV2PmoB409m4TwdMkPlgRzsQo0xDHkx8AI4KvWV3GsUw32yBa6dX7GrNYSEPo1x4DMmhtSS7jIXFxfhcDhyk7Hs0dHR8Vtbf+jWtoeHh40ayeHyZ1TC/h4oQXNNb8VyEqovjRNaE96ePY/okl7c6BJCvrWvb5h7rCD2qRtyj8tY6glzWerZbLSWVzShU0H0ohvzDxUE7++AHBuE5yN78a5PwXNZRd/+98Z6XylDUWEeSCO9qHnUWyZhsjfOgdJ/uTL2vgqzMM3mSms/kbA8B21k9RMJxH6491Dk/2ariU3y71GgCFcUKMIVBYpwRYEiXFGgCFcUKMIV/UtEwlVFXV0dBYpwAvwEEVR4NaQVXmkAAAAASUVORK5CYII=;" vertex="1" parent="1">
                    <mxGeometry x="270" y="250" width="227.69" height="60" as="geometry"/>
                </mxCell>
                <mxCell id="4" value="" style="ellipse;whiteSpace=wrap;html=1;fillColor=none;strokeColor=#FF0000;strokeWidth=4;" vertex="1" parent="1">
                    <mxGeometry x="320" y="250" width="50" height="60" as="geometry"/>
                </mxCell>
            </root>
        </mxGraphModel>
    </diagram>
</mxfile>